HIERARCHY
ROOT Hips
{
	OFFSET -3.958830 18.904000 13.208200
	CHANNELS 6 Xposition Yposition Zposition Zrotation Yrotation Xrotation 
	JOINT LHipJoint
	{
		OFFSET 0.000000 0.000000 0.000000
		CHANNELS 3 Zrotation Yrotation Xrotation
		JOINT LeftUpLeg
		{
			OFFSET 1.800000 -1.400000 0.085000
			CHANNELS 3 Zrotation Yrotation Xrotation
			JOINT LeftLeg
			{
				OFFSET 2.215000 -6.000000 0.000000
				CHANNELS 3 Zrotation Yrotation Xrotation
				JOINT LeftFoot
				{
					OFFSET 2.500000 -6.900000 0.000000
					CHANNELS 3 Zrotation Yrotation Xrotation
					JOINT LeftToeBase
					{
						OFFSET 0.200000 -0.500000 1.950000
						CHANNELS 3 Zrotation Yrotation Xrotation
						End Site
						{
							OFFSET 0.000000 0.000000 0.000000
						}
					}
				}
			}
		}
	}
	JOINT RHipJoint
	{
		OFFSET 0.000000 0.000000 0.000000
		CHANNELS 3 Zrotation Yrotation Xrotation
		JOINT RightUpLeg
		{
			OFFSET -1.800000 -1.400000 0.085000
			CHANNELS 3 Zrotation Yrotation Xrotation
			JOINT RightLeg
			{
				OFFSET -2.215000 -6.000000 0.000000
				CHANNELS 3 Zrotation Yrotation Xrotation
				JOINT RightFoot
				{
					OFFSET -2.500000 -6.900000 0.000000
					CHANNELS 3 Zrotation Yrotation Xrotation
					JOINT RightToeBase
					{
						OFFSET -0.200000 -0.500000 1.950000
						CHANNELS 3 Zrotation Yrotation Xrotation
						End Site
						{
							OFFSET 0.000000 0.000000 0.000000
						}
					}
				}
			}
		}
	}
	JOINT LowerBack
	{
		OFFSET 0.000000 0.000000 0.000000
		CHANNELS 3 Zrotation Yrotation Xrotation
		JOINT Spine
		{
			OFFSET -0.087000 1.940000 -0.288900
			CHANNELS 3 Zrotation Yrotation Xrotation
			JOINT Spine1
			{
				OFFSET 0.000000 1.950000 0.060000
				CHANNELS 3 Zrotation Yrotation Xrotation
				JOINT Neck
				{
					OFFSET 0.000000 0.000000 0.000000
					CHANNELS 3 Zrotation Yrotation Xrotation
					JOINT Neck1
					{
						OFFSET 0.000000 1.600000 0.340000
						CHANNELS 3 Zrotation Yrotation Xrotation
						JOINT Head
						{
							OFFSET 0.000000 1.667000 -0.240000
							CHANNELS 3 Zrotation Yrotation Xrotation
							End Site
							{
								OFFSET 0.000000 0.000000 0.000000
							}
						}
					}
				}
				JOINT LeftShoulder
				{
					OFFSET 0.000000 0.000000 0.000000
					CHANNELS 3 Zrotation Yrotation Xrotation
					JOINT LeftArm
					{
						OFFSET 2.700000 1.550000 -0.730000
						CHANNELS 3 Zrotation Yrotation Xrotation
						JOINT LeftForeArm
						{
							OFFSET 5.450000 0.000000 0.000000
							CHANNELS 3 Zrotation Yrotation Xrotation
							JOINT LeftHand
							{
								OFFSET 3.450000 0.000000 0.000000
								CHANNELS 3 Zrotation Yrotation Xrotation
								JOINT LeftHandIndex1
								{
									OFFSET 0.750000 0.000000 0.000000
									CHANNELS 3 Zrotation Yrotation Xrotation
									End Site
									{
										OFFSET 0.000000 0.000000 0.000000
									}
								}
							}
						}
					}
				}
				JOINT RightShoulder
				{
					OFFSET 0.000000 0.000000 0.000000
					CHANNELS 3 Zrotation Yrotation Xrotation
					JOINT RightArm
					{
						OFFSET -2.700000 1.550000 -0.730000
						CHANNELS 3 Zrotation Yrotation Xrotation
						JOINT RightForeArm
						{
							OFFSET -5.450000 0.000000 0.000000
							CHANNELS 3 Zrotation Yrotation Xrotation
							JOINT RightHand
							{
								OFFSET -3.450000 0.000000 0.000000
								CHANNELS 3 Zrotation Yrotation Xrotation
								JOINT RightHandIndex1
								{
									OFFSET -0.750000 0.000000 0.000000
									CHANNELS 3 Zrotation Yrotation Xrotation
									End Site
									{
										OFFSET 0.000000 0.000000 0.000000
									}
								}
							}
						}
					}
				}
			}
		}
	}
}
MOTION
Frames: 4
Frame Time: 0.016667
0.342180 19.547160 -1.661840 11.795608 -29.712909 -19.945313 -15.691848 9.624116 3.038707 -80.177809 -12.800574 -67.470837 69.034415 -8.537909 20.967539 0.282476 10.261569 0.824523 0.993670 0.545170 0.567850 18.419616 -6.468114 7.503736 -22.844641 46.723660 12.595788 81.147976 5.726365 3.033095 -2.144518 -8.315013 1.601077 0.483500 0.086600 0.110390 -4.591771 2.191701 -9.688805 19.783948 17.716040 41.620623 -14.442630 25.459807 27.640948 15.412368 -17.549106 -16.341746 -32.599734 13.720505 46.094186 0.790870 -10.104990 -33.053580 -2.520022 -15.127642 13.547545 -54.484579 3.103492 -13.617307 -56.842430 -64.957619 22.469343 -2.563302 3.576777 1.182700 -0.251140 0.132920 0.262030 -29.045862 40.182226 -20.075457 -1.642487 34.174883 -20.476763 -45.886375 46.870011 -21.600246 4.648732 -1.737614 -0.352620 0.747830 0.109200 -0.389390 
0.510900 19.540100 -1.783340 16.810825 -25.380148 -17.019983 -16.349059 9.987948 2.812176 -97.983791 -20.914988 -66.834743 75.203692 -8.107481 12.683083 0.080365 9.945450 0.922865 0.893280 0.372500 0.558060 18.006890 -4.877547 7.509785 -28.596163 47.607910 7.609193 80.000516 11.864724 -1.144335 -1.947725 -7.640928 1.767047 0.466320 0.159990 0.073800 -2.491972 -0.992885 -9.425354 6.825558 23.133378 38.859359 -12.196083 27.064267 27.149350 15.155607 -17.044147 -14.926183 -34.362576 15.136007 46.341237 1.434830 -12.157620 -34.184700 -4.763551 -14.614316 13.182605 -52.529858 4.572993 -15.076132 -59.032060 -65.084898 23.202075 -2.624404 3.376634 1.290070 -0.253700 0.087510 0.184160 -28.309425 42.326835 -20.863119 -5.680350 31.966958 -22.355367 -42.370654 44.842144 -19.229802 4.130544 -1.653247 -0.502200 0.878570 0.236530 -0.439700 
0.714000 19.460940 -1.874840 20.788275 -20.582073 -12.353540 -16.835275 10.371169 2.561423 -114.247809 -27.397519 -60.632562 80.532896 -7.275071 5.892483 0.056532 9.566902 1.086565 0.763070 0.199980 0.485400 17.690444 -3.736121 7.426559 -36.560532 45.883274 0.241163 77.446566 15.610349 -4.555487 -1.753506 -7.247498 1.898922 0.385250 0.248630 0.076370 -1.015013 -3.627483 -8.920884 -5.689092 26.151371 31.589831 -9.045697 26.292803 27.225585 14.312691 -16.175652 -14.355480 -34.251626 16.341813 46.797054 1.061660 -12.743600 -30.914020 -5.776481 -12.708465 12.727737 -51.993775 8.783375 -16.881140 -58.651040 -62.898674 21.549547 -2.707122 3.313057 1.246150 -0.188250 -0.002510 0.136180 -25.239175 42.354628 -17.048347 -10.792153 31.359631 -23.490023 -40.841657 42.562482 -17.717061 3.459907 -1.562731 -0.547120 0.867450 0.316860 -0.432640 
0.943580 19.406610 -1.969330 23.104867 -11.758794 -7.981782 -16.959362 10.979786 2.469042 -126.716714 -26.780745 -50.461459 84.831150 -2.809718 -1.922453 0.099631 9.188402 1.244463 0.703470 0.160570 0.431670 17.584591 -3.327949 7.332772 -41.120518 40.313395 -3.838826 72.853419 15.298076 -7.044157 -1.666965 -7.181937 1.933500 0.339630 0.281330 0.066480 -0.323453 -5.677631 -8.798493 -12.665070 24.562148 28.953012 -7.616676 22.910990 27.990124 13.573620 -14.924765 -14.510088 -33.350109 16.825154 48.006503 1.692850 -12.959270 -29.092660 -4.869208 -10.857053 11.416293 -51.370708 10.961937 -18.011011 -52.950846 -56.925066 15.666838 -2.877085 3.152641 1.187820 -0.164420 -0.034580 0.113770 -23.985506 39.950490 -11.471903 -13.040803 27.982711 -24.642138 -43.033145 40.927994 -18.349352 3.037320 -1.512385 -0.524440 0.846160 0.338050 -0.395230 
